<svg xmlns="http://www.w3.org/2000/svg" viewBox="0 0 607.91 334.27"><defs><style>.cls-1,.cls-2{stroke:#000;stroke-miterlimit:10;}.cls-1{stroke-width:0.25px;}.cls-2{fill:#fff;stroke-linecap:round;}.cls-3,.cls-6{font-size:12px;font-family:Futura-Bold, Futura;font-weight:700;}.cls-4{letter-spacing:0em;}.cls-5{letter-spacing:0em;}.cls-6{letter-spacing:0em;}</style></defs><title>Asset 13</title><g id="Layer_2" data-name="Layer 2"><g id="Layer_1-2" data-name="Layer 1"><path class="cls-1" d="M119.4,107.88H24.78c-9.61,0-17.47,6-17.47,13.35v73.45C7.31,202,15.17,208,24.78,208H119.4c9.61,0,17.47-6,17.47-13.35V121.23C136.87,113.89,129,107.88,119.4,107.88Zm8.73,13.35v6.68H94.66V114.55H119.4C124.21,114.55,128.14,117.56,128.14,121.23Zm-72.79,6.68V114.55H88.83v13.35Zm33.48,4.45v69H55.35v-69ZM24.78,114.55H49.53v13.35H16v-6.68C16,117.56,20,114.55,24.78,114.55ZM16,194.68V132.36H49.53v69H24.78C20,201.36,16,198.35,16,194.68Zm103.36,6.68H94.66v-69h33.48v62.32C128.14,198.35,124.21,201.36,119.4,201.36ZM21.87,146.83c0-1.22,1.31-2.23,2.91-2.23h16c1.6,0,2.91,1,2.91,2.23s-1.31,2.23-2.91,2.23h-16C23.18,149.05,21.87,148.05,21.87,146.83ZM43.7,160.18c0,1.22-1.31,2.23-2.91,2.23h-16c-1.6,0-2.91-1-2.91-2.23S23.18,158,24.78,158h16C42.39,158,43.7,159,43.7,160.18Zm0,13.35c0,1.22-1.31,2.23-2.91,2.23h-16c-1.6,0-2.91-1-2.91-2.23s1.31-2.23,2.91-2.23h16C42.39,171.31,43.7,172.31,43.7,173.54Zm0,13.35c0,1.22-1.31,2.23-2.91,2.23h-16c-1.6,0-2.91-1-2.91-2.23s1.31-2.23,2.91-2.23h16C42.39,184.67,43.7,185.67,43.7,186.89Zm17.47-40.06c0-1.22,1.31-2.23,2.91-2.23h16c1.6,0,2.91,1,2.91,2.23s-1.31,2.23-2.91,2.23h-16C62.48,149.05,61.17,148.05,61.17,146.83Zm0,13.35c0-1.22,1.31-2.23,2.91-2.23h16c1.6,0,2.91,1,2.91,2.23s-1.31,2.23-2.91,2.23h-16C62.48,162.41,61.17,161.41,61.17,160.18Zm0,13.35c0-1.22,1.31-2.23,2.91-2.23h16c1.6,0,2.91,1,2.91,2.23s-1.31,2.23-2.91,2.23h-16C62.48,175.76,61.17,174.76,61.17,173.54ZM83,186.89c0,1.22-1.31,2.23-2.91,2.23h-16c-1.6,0-2.91-1-2.91-2.23s1.31-2.23,2.91-2.23h16C81.7,184.67,83,185.67,83,186.89Zm39.3-40.06c0,1.22-1.31,2.23-2.91,2.23h-16c-1.6,0-2.91-1-2.91-2.23s1.31-2.23,2.91-2.23h16C121,144.6,122.31,145.6,122.31,146.83Zm0,13.35c0,1.22-1.31,2.23-2.91,2.23h-16c-1.6,0-2.91-1-2.91-2.23s1.31-2.23,2.91-2.23h16C121,158,122.31,159,122.31,160.18Zm0,13.35c0,1.22-1.31,2.23-2.91,2.23h-16c-1.6,0-2.91-1-2.91-2.23s1.31-2.23,2.91-2.23h16C121,171.31,122.31,172.31,122.31,173.54Zm0,13.35c0,1.22-1.31,2.23-2.91,2.23h-16c-1.6,0-2.91-1-2.91-2.23s1.31-2.23,2.91-2.23h16C121,184.67,122.31,185.67,122.31,186.89Z"/><path d="M219,153.59l-20.14,11.64a.82.82,0,0,1-1.14-1.09l4.23-8.55H147.24a2.68,2.68,0,0,1-2.7-2.7v-.06a2.68,2.68,0,0,1,2.7-2.7h54.71l-4.23-8.55a.83.83,0,0,1,1.14-1.09L219,152.15A.84.84,0,0,1,219,153.59Z"/><path d="M230.84,101.47a7.79,7.79,0,0,0-7.78,7.78v87.1a7.79,7.79,0,0,0,7.78,7.78H349.05a7.79,7.79,0,0,0,7.78-7.78v-87.1a7.79,7.79,0,0,0-7.78-7.78Zm0,3.11h35l14.68,18.66H226.18v-14A4.62,4.62,0,0,1,230.84,104.58Zm39,0h79.23a4.62,4.62,0,0,1,4.67,4.67v14H284.51Zm-34.32,6.22a3.11,3.11,0,1,0,3.11,3.11A3.11,3.11,0,0,0,235.51,110.8Zm10.89,0a3.11,3.11,0,1,0,3.11,3.11A3.11,3.11,0,0,0,246.4,110.8Zm10.89,0a3.11,3.11,0,1,0,3.11,3.11A3.11,3.11,0,0,0,257.29,110.8Zm-31.11,15.55H353.72v70a4.62,4.62,0,0,1-4.67,4.67H230.84a4.62,4.62,0,0,1-4.67-4.67Z"/><path d="M327,166.82a9.88,9.88,0,0,0,2.21-1.58l2.25.92a.92.92,0,0,0,1.12-.36l.63-1,.63-1a.92.92,0,0,0-.17-1.17l-1.8-1.58a10,10,0,0,0,.47-2.74l2.25-.95a.92.92,0,0,0,.54-1.06l-.27-1.17-.27-1.17a.92.92,0,0,0-1-.71l-2.39.15a9.79,9.79,0,0,0-1.61-2.27l.92-2.25a.92.92,0,0,0-.36-1.12l-1-.63-1-.63a.92.92,0,0,0-1.17.17l-1.57,1.82a10,10,0,0,0-2.74-.47l-.95-2.25a.92.92,0,0,0-1.06-.54l-1.17.27-1.17.27a.92.92,0,0,0-.71,1l.15,2.39a9.33,9.33,0,0,0-2.33,1.65l-2.24-.92a.92.92,0,0,0-1.12.36l-.63,1-.63,1a.92.92,0,0,0,.17,1.17l1.81,1.6a9.85,9.85,0,0,0-.45,2.75l-2.23.93a1,1,0,0,0-.55,1l.27,1.17.27,1.17a.92.92,0,0,0,1,.71l2.41-.15a9.86,9.86,0,0,0,1.63,2.27l-.92,2.24a.92.92,0,0,0,.36,1.12l1,.63,1,.63a.92.92,0,0,0,1.17-.17l1.6-1.81a9.85,9.85,0,0,0,2.75.45l.93,2.23a.92.92,0,0,0,1.06.54l1.17-.27,1.17-.27a.92.92,0,0,0,.71-1Zm-3.53-3.7a5.25,5.25,0,1,1,3.91-6.3A5.25,5.25,0,0,1,323.47,163.12ZM298,170v1.47a.56.56,0,0,0,.47.56l1.46.24a6.06,6.06,0,0,0,.66,1.58l-.86,1.21a.56.56,0,0,0,.06.72l.52.52.52.52a.56.56,0,0,0,.72.06l1.21-.86a6,6,0,0,0,1.58.66l.24,1.46a.57.57,0,0,0,.56.47h1.47a.56.56,0,0,0,.56-.47l.24-1.46a6,6,0,0,0,1.54-.64l1.22.87a.56.56,0,0,0,.72-.06l.52-.52.52-.52a.56.56,0,0,0,.06-.72l-.85-1.2a6.15,6.15,0,0,0,.66-1.58l1.48-.25a.57.57,0,0,0,.47-.56V170a.56.56,0,0,0-.47-.56l-1.45-.24a6,6,0,0,0-.64-1.58l.87-1.22a.56.56,0,0,0-.06-.72l-.52-.52-.52-.52a.56.56,0,0,0-.72-.06l-1.19.87a6.15,6.15,0,0,0-1.58-.66l-.25-1.48a.57.57,0,0,0-.56-.47h-1.47a.56.56,0,0,0-.56.47l-.24,1.45a5.72,5.72,0,0,0-1.62.66l-1.21-.86a.56.56,0,0,0-.72.06l-.52.52-.52.52a.56.56,0,0,0-.06.72l.86,1.21a6,6,0,0,0-.66,1.58l-1.46.24A.58.58,0,0,0,298,170Zm4.6.74A3.22,3.22,0,1,1,305.8,174,3.22,3.22,0,0,1,302.58,170.75Zm9.79,8.7,0,.71a.54.54,0,0,0,.44.55l1.41.27a5.84,5.84,0,0,0,.6,1.54l-.86,1.15a.54.54,0,0,0,0,.7l.49.51.49.51a.54.54,0,0,0,.7.07l1.19-.8a5.84,5.84,0,0,0,1.51.67l.2,1.42a.55.55,0,0,0,.53.47l.71,0,.71,0a.54.54,0,0,0,.55-.44l.27-1.41a5.87,5.87,0,0,0,1.5-.58l1.16.86a.54.54,0,0,0,.7,0l.51-.49.51-.49a.54.54,0,0,0,.07-.7l-.8-1.18a5.94,5.94,0,0,0,.68-1.51l1.43-.21a.55.55,0,0,0,.47-.53l0-.71,0-.71a.54.54,0,0,0-.44-.55l-1.39-.27a5.81,5.81,0,0,0-.58-1.54l.86-1.16a.54.54,0,0,0,0-.7l-.49-.51-.49-.51a.54.54,0,0,0-.7-.07l-1.17.81a5.94,5.94,0,0,0-1.51-.68l-.21-1.43a.55.55,0,0,0-.53-.47l-.71,0-.71,0a.54.54,0,0,0-.55.44l-.27,1.39a5.53,5.53,0,0,0-1.58.6l-1.15-.86a.54.54,0,0,0-.7,0l-.51.49-.51.49a.54.54,0,0,0-.07.7l.8,1.19a5.84,5.84,0,0,0-.67,1.51l-1.42.2a.56.56,0,0,0-.47.51Zm4.43.11a3.11,3.11,0,1,1,3,3.18A3.11,3.11,0,0,1,316.8,179.57Z"/><path d="M256.27,186.11a20.59,20.59,0,1,1,14.56-6A20.45,20.45,0,0,1,256.27,186.11Zm0-39.35a18.77,18.77,0,1,0,13.27,5.5A18.65,18.65,0,0,0,256.27,146.76Z"/><polygon points="251.61 158.49 244.82 153.84 249.48 160.63 254.13 167.42 260.92 172.07 267.7 176.72 263.06 169.93 258.4 163.14 251.61 158.49"/><path d="M414.39,81.92c-2,7.49-4,15-6,22.47a.82.82,0,0,1-1.57,0l-3.06-9-38.68,38.68a2.68,2.68,0,0,1-3.81,0l0,0a2.68,2.68,0,0,1,0-3.81L399.9,91.54l-9-3.06a.83.83,0,0,1,0-1.57l22.47-6A.84.84,0,0,1,414.39,81.92Z"/><path d="M413.37,232.93l-22.47-6a.82.82,0,0,1,0-1.57l9-3.06-38.68-38.68a2.68,2.68,0,0,1,0-3.81l0,0a2.68,2.68,0,0,1,3.81,0l38.68,38.68,3.06-9a.83.83,0,0,1,1.57,0c2,7.49,4,15,6,22.47A.84.84,0,0,1,413.37,232.93Z"/><path d="M432.22,304.06H588.56V197.17H432.22ZM556,202.26H582v15.27H556Zm0,20.36H582v15.27H556ZM556,243H582v15.27H556Zm0,20.36H582v15.27H556Zm0,20.36H582V299H556Zm-32.57-81.45h26.06v15.27H523.42Zm0,20.36h26.06v15.27H523.42Zm0,20.36h26.06v15.27H523.42Zm0,20.36h26.06v15.27H523.42Zm0,20.36h26.06V299H523.42Zm-32.57-81.45H516.9v15.27H490.85Zm0,20.36H516.9v15.27H490.85Zm0,20.36H516.9v15.27H490.85Zm0,20.36H516.9v15.27H490.85Zm0,20.36H516.9V299H490.85Zm-52.11-81.45h45.6v15.27h-45.6Zm0,20.36h45.6v15.27h-45.6Zm0,20.36h45.6v15.27h-45.6Zm0,20.36h45.6v15.27h-45.6Zm0,20.36h45.6V299h-45.6Z"/><path d="M458.56,90.92h8.33v15.27h-8.33Zm28.33-13.74h7.78V65.73h-7.78ZM444.67,72.6h7.78V48.94h-7.78Zm0,4.58v29h7.78v-29Zm0-32.82h7.78V37.49h-7.78Zm13.89,14.5V86.34h8.33V58.86Zm0-5.34h8.33v-16h-8.33Zm13.89,42v10.69h8.33V95.5Zm0-18.32V90.92h8.33V77.18Zm0-4.58h8.33V37.49h-8.33Zm14.44,9.16v24.42h7.78V81.76Zm0-20.61h7.78V37.49h-7.78Z"/><path d="M441.53,0a9.33,9.33,0,0,0-9.31,9.31V113.58a9.33,9.33,0,0,0,9.31,9.31H583a9.33,9.33,0,0,0,9.31-9.31V9.31A9.33,9.33,0,0,0,583,0Zm0,3.72h42l17.57,22.34H435.95V9.31A5.53,5.53,0,0,1,441.53,3.72Zm46.66,0H583a5.53,5.53,0,0,1,5.59,5.59V26.07H505.77Zm-41.08,7.45a3.72,3.72,0,1,0,3.72,3.72A3.72,3.72,0,0,0,447.12,11.17Zm13,0a3.72,3.72,0,1,0,3.72,3.72A3.72,3.72,0,0,0,460.15,11.17Zm13,0a3.72,3.72,0,1,0,3.72,3.72A3.72,3.72,0,0,0,473.18,11.17ZM435.95,29.79H588.62v83.79a5.53,5.53,0,0,1-5.59,5.59H441.53a5.53,5.53,0,0,1-5.59-5.59Z"/><circle class="cls-2" cx="25.2" cy="222.31" r="24.7"/><text class="cls-3" transform="translate(12.58 226.72)">C<tspan class="cls-4" x="8" y="0">S</tspan><tspan class="cls-5" x="15.74" y="0">V</tspan></text><circle class="cls-2" cx="70.41" cy="222.31" r="24.7"/><text class="cls-6" transform="translate(58.58 226.72)">T<tspan class="cls-4" x="6.42" y="0">S</tspan><tspan class="cls-5" x="14.16" y="0">V</tspan></text><circle class="cls-2" cx="116.49" cy="222.31" r="24.7"/><text class="cls-3" transform="translate(105.26 226.72)">TXT</text><circle class="cls-2" cx="582.71" cy="309.06" r="24.7"/><text class="cls-3" transform="translate(570.09 313.47)">C<tspan class="cls-4" x="8" y="0">S</tspan><tspan class="cls-5" x="15.74" y="0">V</tspan></text></g></g></svg>